<?xml version="1.0" standalone="yes"?>
<svg width="242" height="310">
<path style="fill:#ffffff; stroke:none;" d="M0 0L0 310L16 310L15.8526 275L12.1281 263L16 251L224 251L224 310L242 310L242 0L180 0L180 200L63 200L63 0L0 0z"/>
<path style="fill:#000000; stroke:none;" d="M63 0L63 10L113 1C100.11 -4.40869 77.0494 0 63 0z"/>
<path style="fill:#76d300; stroke:none;" d="M63 10L64.0278 29.6211L78 39.1891L115 61L115 0L63 10z"/>
<path style="fill:#64eb1c; stroke:none;" d="M115 0L116 42L117 42L119 39L118 36L120 34L121 34L123 42L123 43C120.994 44.1266 120.994 44.8734 123 46L122 50L128 47L131 57L133 51L137 56L138 56L141 53L141 56L144 55L144 64L148 64C149.069 70.7051 152.672 72.1778 159 73L158 70L176 73C177.41 67.5498 181.369 56.6821 179.357 51.2894C177.219 45.5571 167.636 40.5094 163 36.8002C148.489 25.1913 132.089 7.23364 115 0z"/>
<path style="fill:#000000; stroke:none;" d="M117 0L155 31.2107L180 50L180 0L117 0z"/>
<path style="fill:#9cf000; stroke:none;" d="M63 30L63 110L115 109C115.549 96.2133 120.314 75.1788 115.397 63.1042C113.469 58.3709 106.105 55.7041 102 53.189C89.3457 45.4363 76.6325 35.8743 63 30z"/>
<path style="fill:#7cec1e; stroke:none;" d="M120 34L118 36L119 39L117 42L116 42L116 38L115 38C115 44.4136 112.734 56.1529 116.028 61.7901C118.756 66.4601 126.546 69.2623 131 72.0502C143.545 79.903 157.783 91.8165 172 96L176 73L158 70L159 73C152.989 71.813 149.63 70.2206 148 64L144 64L144 55L141 56L141 53L140 53L138 56L137 56L133 51L131 57L128 47L122 50L123 46L123 43L123 42L120 34z"/>
<path style="fill:#000000; stroke:none;" d="M179 55L172 96L116 63L116 137L172 104L179 143L180 143L180 82L179 55z"/>
<path style="fill:#b4f40c; stroke:none;" d="M115 103L115 109L63 110L63 149L81 149L83 145L104 140L106 138L105 135C108.559 134.234 107.582 132.133 107 129L115 129L115 103z"/>
<path style="fill:#dbf220; stroke:none;" d="M116 134L115 134L115 200C131.479 193.627 150.001 174.965 163 163L163 162C156.971 156.05 158.154 145.774 159 138L156 133L153 134C155.68 127.081 158.361 124.397 165.285 121.545C167.613 120.586 172.406 120.583 173.883 118.397C175.965 115.315 173.027 107.248 172 104C157.83 108.486 143.606 120.159 131 128.05C127.628 130.161 119.366 137.537 116 134z"/>
<path style="fill:#ebe104; stroke:none;" d="M153 134L156 133L159 138C157.09 145.91 157.087 156.873 163 163L164 163C168.486 158.871 175.941 155.035 178.971 149.711C182.775 143.027 176.758 126.137 175 119C164.503 121.528 156.275 122.521 153 134z"/>
<path style="fill:#c7f42a; stroke:none;" d="M115 124L115 129L107 129L105 135L104 140L83 145L81 149L63 149L63 191L115 200L115 146L115 124z"/>
<path style="fill:#000000; stroke:none;" d="M179 150L117 199L117 200L180 200C180 185.951 184.409 162.89 179 150M63 191L63 200L110 200C97.4437 194.363 76.7705 191.593 63 191M16 254L26 253L26 255C22.1061 256.551 16.8577 258.744 17.6227 263.946C18.1423 267.48 30.5524 274.215 19.1597 273.267L16 273L16 310L72 310L72 309C64.0125 305.15 63.8254 286.672 74.9853 288.542C85.118 290.241 83.6137 306.522 75 309L75 310L96 310C94.7225 306.461 93.8237 304.661 90 304L90 309L85 309C85 303.829 83.5118 295.939 85.6034 291.148C87.9201 285.842 96.4902 287.929 98.8202 292.109C101.315 296.583 99.1673 302.933 101 308L98 309L98 310L141 310L141 309C132.02 306.402 131.764 289.46 142.003 288.466C152.875 287.411 152.867 305.813 144 309L144 310L155 310L155 309L154 288L159 288L159 305C163.161 305.049 165.888 305.17 168 309L164 309L164 310L171 310L171 309C169.774 306.519 168.4 287.651 172.83 288.631C177.441 289.651 174.782 306.717 174 310L185 310L185 309C176.02 306.402 175.764 289.46 186.003 288.466C196.875 287.411 196.867 305.813 188 309L188 310L224 310L224 256L216 262L216 263C223.508 270.625 221.367 273.335 213 267L213 273L207 273L209 251L203 251C204.482 257.227 207.259 273.3 198 273L200 251L193 251L193 252L196 252L196 257L187 256C188.422 260.307 192.84 261.221 194.802 265.104C199.22 273.852 185.685 273.579 181 273L181 268L191 268C186.721 262.818 176.696 257.099 187 252L187 251L168 251L168 252C172.001 257.281 170 267.557 170 274C163.998 273.052 162.159 268.183 160 263L159 263L159 273L154 273L155 251L96 251L96 252C100.001 257.281 98 267.557 98 274L92 273L93 265L88 265L88 273L82 273L84 251L70 251C71.4824 257.227 74.2593 273.3 65 273L67 251L42 251C44.4203 257.641 47.4977 272.485 38 274L38 265L34 265L33 273L28 273L29 251C24.8982 251 17.0399 249.147 16 254z"/>
<path style="fill:#363636; stroke:none;" d="M28 273L33 273L34 265L38 265L38 274C47.3209 273.274 45.0192 257.274 42 251L40 251L39 260C33.6363 259.124 34.4651 252.637 30.831 251.921C26.4296 251.055 28 270.1 28 273z"/>
<path style="fill:#000000; stroke:none;" d="M32 251C33.2256 255.956 33.226 259.54 39 260L40 251L32 251z"/>
<path style="fill:#363636; stroke:none;" d="M65 273C79.7775 275.485 66.1371 239.226 66.0008 259L65.9961 264C65.9595 267.074 65.56 269.984 65 273M82 273L88 273L88 265L93 265L92 273L98 274C98 268.04 99.4511 259.947 97.6829 254.244C95.5248 247.284 93.0078 257.811 93 260L88 260C87.9918 257.688 85.4444 246.949 83.3171 254.153C81.7435 259.482 82.2413 267.38 82 273z"/>
<path style="fill:#000000; stroke:none;" d="M87 251L88 260L93 260L95 252L87 251z"/>
<path style="fill:#363636; stroke:none;" d="M154 273L159 273L159 263L160 263C161.635 268.677 163.613 273.507 170 274C170 268.04 171.451 259.947 169.683 254.244C167.285 246.509 165 260.008 165 262C164.031 260.341 163.138 258.661 162.208 256.98C153.408 241.075 154 267.304 154 273z"/>
<path style="fill:#000000; stroke:none;" d="M159 251L164 262L165 262L167 252L159 251z"/>
<path style="fill:#363636; stroke:none;" d="M191 268L181 268L181 273C186.327 273.985 198.965 274.336 195.253 265.104C193.687 261.208 189.028 259.699 187 256L196 257L196 252C191.174 251.107 178.046 251.144 182.223 259.907C183.85 263.32 188.202 265.612 191 268M198 273C212.777 275.485 199.137 239.226 199.001 259L198.996 264C198.96 267.074 198.56 269.984 198 273M207 273L213 273L213 267C221.489 276.1 224.989 269.408 216 263L216 262L224 256C220.95 250.546 216.57 253.73 214 258C208.632 241.83 207.239 267.423 207 273z"/>
<path style="fill:#000000; stroke:none;" d="M212 251L213 258L214 258C217.084 254.525 219.334 252.703 224 254C222.987 249.274 215.995 251 212 251z"/>
<path style="fill:#363636; stroke:none;" d="M26 255L26 253C16.6709 250.327 7.2047 261.176 13.6034 269.856C15.3163 272.179 22.545 276.051 24.8241 272.448C26.6378 269.58 20.0208 267.513 18.8364 265.722C15.383 260.5 22.4034 257.009 26 255M51.108 253.029C41.3694 258.406 46.5171 279.297 58.7755 272.424C67.3952 267.59 61.5118 247.284 51.108 253.029M111 274L117 253C112.117 251.866 110.772 254.822 109 259C98.1024 240.828 101.596 273.267 111 274M133 273L133 269L124 269L124 265L132 265L132 261L124 261C125.439 256.259 128.704 256.322 133 255L133 253C129.778 252.048 123.554 250.691 120.603 253.028C117.656 255.362 117.653 270.484 120.603 272.821C123.718 275.287 129.511 273.648 133 273M140.105 252.746C130.8 256.552 133.763 277.403 145.956 272.953C155.463 269.483 151.389 248.13 140.105 252.746z"/>
<path style="fill:#000000; stroke:none;" d="M54 257L53 269C57.9942 266.246 57.8737 260.793 54 257M142 257C140.017 261.701 138.962 266.222 144 269C146.104 264.603 145.877 261.455 144 257L142 257z"/>
<path style="fill:#363636; stroke:none;" d="M169 309C183.777 311.485 170.137 275.226 170.001 295L169.996 300C169.96 303.074 169.56 305.984 169 309M48 309L53 309L53 304C54.9804 303.908 57.0383 303.923 58.8958 303.106C73.1947 296.822 51.6348 279.976 48.3179 291.148C47.6019 293.56 48.0002 296.514 48 299L48 309M71.1049 288.746C61.8003 292.552 64.7633 313.403 76.956 308.953C86.4631 305.483 82.3886 284.13 71.1049 288.746M85 309L90 309L90 304L96 310L101 308C99.7185 303 101.436 295.508 98.821 291.228C96.7067 287.768 87.7262 286.004 85.6034 290.318C83.2909 295.017 85 303.818 85 309M102 288L102 293L107 293L106 309L112 309C112 302.98 109.948 294.141 117 292L117 288L102 288M119 309L124 309L125 302C133.328 301.727 131.211 297.085 124 297C125.303 292.708 127.735 292.139 132 292L132 288C116.419 288 119 295.48 119 309M139.108 289.029C129.369 294.406 134.517 315.297 146.775 308.424C155.395 303.59 149.512 283.284 139.108 289.029M154 288L154.603 308.821L168 309C166.544 304.613 163.15 305.015 159 305L159 288L154 288M183.108 289.029C173.369 294.406 178.517 315.297 190.775 308.424C199.395 303.59 193.512 283.284 183.108 289.029z"/>
<path style="fill:#000000; stroke:none;" d="M54 292L53 299C58.1299 298.143 58.4341 294.451 54 292M91 292L90 299C95.1299 298.143 95.4341 294.451 91 292M73 293C71.0169 297.701 69.9624 302.222 75 305C77.104 300.603 76.877 297.455 75 293L73 293M142 293L141 305C145.994 302.246 145.874 296.793 142 293M186 293L185 305C189.994 302.246 189.874 296.793 186 293z"/>
</svg>
